<svg width="23" height="23" viewBox="0 0 23 23" fill="none" xmlns="http://www.w3.org/2000/svg">
<path d="M19.4063 9.66667H11.7522C11.0005 7.53083 8.9655 6 6.573 6C3.53883 6 1.073 8.46583 1.073 11.5C1.073 14.5342 3.53883 17 6.573 17C8.9655 17 11.0005 15.4692 11.7522 13.3333H12.073L13.9063 15.1667L15.7397 13.3333L17.573 15.1667L21.2397 11.4633L19.4063 9.66667ZM6.573 14.25C5.0605 14.25 3.823 13.0125 3.823 11.5C3.823 9.9875 5.0605 8.75 6.573 8.75C8.0855 8.75 9.323 9.9875 9.323 11.5C9.323 13.0125 8.0855 14.25 6.573 14.25Z" fill="#717171"/>
</svg>
