<svg width="20" height="20" viewBox="0 0 20 20" fill="none" xmlns="http://www.w3.org/2000/svg">
<path d="M10 4.97918C13.1584 4.97918 15.975 6.75418 17.35 9.56251C16.8584 10.5792 16.1667 11.4542 15.3417 12.1625L16.5167 13.3375C17.675 12.3125 18.5917 11.0292 19.1667 9.56251C17.725 5.90418 14.1667 3.31251 10 3.31251C8.94171 3.31251 7.92504 3.47918 6.96671 3.78751L8.34171 5.16251C8.88337 5.05418 9.43337 4.97918 10 4.97918ZM9.10837 5.92918L10.8334 7.65418C11.3084 7.86251 11.6917 8.24584 11.9 8.72084L13.625 10.4458C13.6917 10.1625 13.7417 9.86251 13.7417 9.55418C13.75 7.48751 12.0667 5.81251 10 5.81251C9.69171 5.81251 9.40004 5.85418 9.10837 5.92918ZM1.67504 3.20418L3.90837 5.43751C2.55004 6.50418 1.47504 7.92084 0.833374 9.56251C2.27504 13.2208 5.83337 15.8125 10 15.8125C11.2667 15.8125 12.4834 15.5708 13.6 15.1292L16.45 17.9792L17.625 16.8042L2.85004 2.02084L1.67504 3.20418ZM7.92504 9.45418L10.1 11.6292C10.0667 11.6375 10.0334 11.6458 10 11.6458C8.85004 11.6458 7.91671 10.7125 7.91671 9.56251C7.91671 9.52084 7.92504 9.49584 7.92504 9.45418ZM5.09171 6.62084L6.55004 8.07918C6.35837 8.53751 6.25004 9.03751 6.25004 9.56251C6.25004 11.6292 7.93337 13.3125 10 13.3125C10.525 13.3125 11.025 13.2042 11.475 13.0125L12.2917 13.8292C11.5584 14.0292 10.7917 14.1458 10 14.1458C6.84171 14.1458 4.02504 12.3708 2.65004 9.56251C3.23337 8.37084 4.08337 7.38751 5.09171 6.62084Z" fill="#717171"/>
</svg>
